 <svg version="1.0" xmlns="http://www.w3.org/2000/svg" width="700.000000pt" height="700.000000pt" viewBox="0 0 700.000000 700.000000" preserveAspectRatio="xMidYMid meet">
<metadata>
Created by potrace 1.12, written by Peter Selinger 2001-2015
</metadata>
<g transform="translate(0.000000,700.000000) scale(0.100000,-0.100000)" fill="#000000" stroke="none">
<path d="M3505 5159 c-129 -31 -1532 -269 -1585 -269 -13 0 -11 -52 6 -159 l7
-41 -332 0 c-182 0 -331 -2 -331 -5 0 -2 55 -80 123 -172 68 -92 131 -179 139
-193 14 -23 9 -57 -91 -530 l-107 -505 47 -100 c25 -55 90 -187 143 -293 78
-156 100 -192 114 -188 9 3 231 53 492 110 l475 105 55 -53 c203 -196 616
-504 847 -632 l52 -29 33 19 c80 46 388 253 479 322 133 100 265 211 356 298
l74 70 172 -38 c95 -21 316 -72 492 -112 176 -40 323 -70 326 -66 3 4 67 137
143 295 l136 288 -100 496 c-55 273 -100 505 -100 517 0 12 61 104 136 206
l135 185 -328 5 c-210 3 -327 9 -326 15 0 6 4 49 8 96 l7 86 -113 17 c-313 47
-854 140 -1524 261 -11 2 -38 -1 -60 -6z m480 -203 c193 -37 496 -92 673 -122
178 -29 327 -56 331 -59 5 -2 5 -21 2 -42 l-6 -38 -598 -3 c-328 -1 -597 -5
-597 -9 0 -4 42 -49 92 -100 l93 -93 -425 0 -425 0 93 93 c50 51 92 96 92 100
0 4 -263 7 -584 7 l-583 0 -6 42 c-3 24 -5 44 -4 45 2 1 101 18 222 38 272 45
706 123 965 175 130 26 215 38 255 36 33 -2 218 -33 410 -70z m-935 -385 c0
-5 -40 -47 -90 -92 -49 -46 -88 -84 -86 -86 5 -6 1366 -8 1366 -3 0 3 -38 43
-85 90 -47 47 -85 88 -85 92 0 5 344 8 765 8 555 0 765 -3 765 -11 0 -6 -36
-66 -80 -133 l-80 -122 105 -497 c58 -273 105 -503 105 -511 0 -8 -50 -118
-112 -245 -90 -186 -115 -231 -131 -231 -11 0 -351 57 -756 126 -693 118 -738
127 -771 153 -19 15 -73 49 -119 77 -47 27 -111 75 -143 106 l-57 57 -60 -63
c-34 -34 -91 -80 -128 -102 -37 -21 -86 -53 -109 -70 -40 -31 -52 -33 -791
-158 -413 -69 -760 -126 -772 -126 -17 0 -41 40 -137 232 l-117 233 113 523
112 523 -86 114 c-47 63 -86 117 -86 120 0 3 349 5 775 5 473 0 775 -4 775 -9z
m133 -1589 c-3 -43 -1 -83 7 -106 16 -48 66 -105 107 -122 67 -29 159 -10 214
42 15 14 29 21 33 16 14 -23 -17 -136 -62 -224 -2 -5 46 -8 106 -8 l110 0 -43
65 c-42 63 -65 118 -65 159 0 18 2 17 28 -6 41 -39 86 -58 137 -58 60 0 103
19 142 63 42 47 56 96 51 173 -2 35 -1 64 2 64 7 0 362 -80 379 -86 19 -6 -21
-48 -164 -171 -187 -162 -563 -433 -601 -433 -17 0 -237 146 -370 247 -124 93
-306 247 -372 316 l-43 44 93 21 c51 12 140 32 198 46 58 13 108 24 112 25 4
1 4 -30 1 -67z"></path>
<path d="M1724 4461 c-2 -2 12 -26 31 -53 19 -26 35 -55 35 -64 0 -14 -170
-888 -185 -951 -5 -23 -4 -23 94 -23 l100 0 6 33 c4 17 23 115 43 217 l37 185
249 3 c137 1 253 -1 258 -6 6 -6 -17 -258 -37 -394 l-5 -38 99 0 100 0 6 43
c9 68 105 1040 102 1043 -4 4 -929 9 -933 5z m727 -205 c3 -4 -15 -231 -20
-243 -1 -2 -116 -3 -256 -3 -232 0 -255 2 -255 17 0 15 24 157 36 211 l4 22
244 0 c133 0 245 -2 247 -4z"></path>
<path d="M4350 4463 c0 -3 23 -30 50 -59 28 -29 50 -59 50 -66 0 -24 50 -483
56 -506 l5 -23 359 7 359 7 5 -24 c13 -61 36 -198 36 -218 l0 -22 -366 7 -367
7 8 -94 c4 -52 9 -97 12 -101 6 -10 943 -10 943 0 -1 4 -29 144 -64 312 l-63
305 -346 3 -346 2 -6 33 c-11 66 -25 173 -25 200 l0 27 336 0 336 0 -6 28 c-3
15 -10 62 -17 105 l-12 77 -468 0 c-258 0 -469 -3 -469 -7z"></path>
<path d="M2730 4249 c0 -3 19 -27 41 -53 l42 -47 -6 -97 c-3 -53 -15 -214 -27
-357 -11 -143 -22 -276 -23 -295 l-2 -35 380 0 380 0 0 100 0 100 -265 3
c-145 1 -268 6 -273 11 -7 7 8 376 19 449 l5 32 259 0 260 0 0 95 0 95 -395 2
c-217 2 -395 0 -395 -3z"></path>
<path d="M3550 4245 c0 -3 18 -25 41 -50 l41 -44 10 -383 c5 -211 11 -389 14
-395 3 -10 88 -13 384 -13 l382 0 -7 68 c-3 37 -8 84 -11 104 l-6 38 -281 2
-282 3 0 70 0 70 274 3 274 2 -7 53 c-3 28 -6 71 -6 95 l0 42 -270 0 -270 0 0
75 0 75 260 0 260 0 0 73 c0 39 -3 82 -6 95 l-6 22 -394 0 c-217 0 -394 -2
-394 -5z"></path>
<path d="M1888 3173 c-131 -2 -238 -6 -238 -8 0 -13 101 -205 108 -205 19 0
1281 202 1307 209 28 8 -625 10 -1177 4z"></path>
<path d="M4045 3169 c26 -7 1288 -209 1307 -209 5 0 108 205 108 216 0 2 -325
4 -722 3 -418 -1 -710 -5 -693 -10z"></path>
</g>
</svg>